<svg xmlns="http://www.w3.org/2000/svg" viewBox="0 0 760 460">
<rect width="760" height="460" rx="28" fill="#0d1d2d"/>
<defs>
  <linearGradient id="g" x1="0" x2="1">
    <stop offset="0%" stop-color="#63e6ff"/>
    <stop offset="100%" stop-color="#7fb2ff"/>
  </linearGradient>
</defs>
<g stroke="url(#g)" stroke-width="4" fill="none" opacity="0.6">
  <path d="M380 220 L190 120"/>
  <path d="M380 220 L570 120"/>
  <path d="M380 220 L160 330"/>
  <path d="M380 220 L380 350"/>
  <path d="M380 220 L600 330"/>
</g>
<g font-family="Arial, sans-serif" text-anchor="middle">
  <g>
    <rect x="300" y="165" width="160" height="90" rx="20" fill="#13283d" stroke="#63e6ff" opacity="0.95"/>
    <text x="380" y="200" fill="#63e6ff" font-size="18">Internet</text>
    <text x="380" y="228" fill="#edf6fb" font-size="30" font-weight="700">Core Network</text>
  </g>
  <g>
    <rect x="120" y="68" width="140" height="72" rx="18" fill="#15283c" stroke="#63e6ff"/>
    <text x="190" y="95" fill="#63e6ff" font-size="16">Home</text>
    <text x="190" y="120" fill="#edf6fb" font-size="24" font-weight="700">LAN</text>
  </g>
  <g>
    <rect x="500" y="68" width="140" height="72" rx="18" fill="#15283c" stroke="#63e6ff"/>
    <text x="570" y="95" fill="#63e6ff" font-size="16">Campus</text>
    <text x="570" y="120" fill="#edf6fb" font-size="24" font-weight="700">Institution</text>
  </g>
  <g>
    <rect x="90" y="292" width="140" height="72" rx="18" fill="#15283c" stroke="#63e6ff"/>
    <text x="160" y="319" fill="#63e6ff" font-size="16">Regional</text>
    <text x="160" y="344" fill="#edf6fb" font-size="24" font-weight="700">ISP</text>
  </g>
  <g>
    <rect x="310" y="320" width="140" height="72" rx="18" fill="#15283c" stroke="#63e6ff"/>
    <text x="380" y="347" fill="#63e6ff" font-size="16">Mobile</text>
    <text x="380" y="372" fill="#edf6fb" font-size="24" font-weight="700">Network</text>
  </g>
  <g>
    <rect x="530" y="292" width="140" height="72" rx="18" fill="#15283c" stroke="#63e6ff"/>
    <text x="600" y="319" fill="#63e6ff" font-size="16">Global</text>
    <text x="600" y="344" fill="#edf6fb" font-size="24" font-weight="700">ISP</text>
  </g>
</g>
</svg>